<mxfile host="Electron" modified="2023-06-20T11:02:10.174Z" agent="Mozilla/5.0 (Windows NT 10.0; Win64; x64) AppleWebKit/537.36 (KHTML, like Gecko) draw.io/21.4.0 Chrome/112.0.5615.204 Electron/24.5.1 Safari/537.36" etag="SF3mM8ghU2yPbJ9utiWk" version="21.4.0" type="device">
  <diagram name="第 1 页" id="bxTRdie6LKYk-y3QE2Pp">
    <mxGraphModel dx="934" dy="618" grid="1" gridSize="10" guides="1" tooltips="1" connect="1" arrows="1" fold="1" page="1" pageScale="1" pageWidth="827" pageHeight="1169" math="0" shadow="0">
      <root>
        <mxCell id="0" />
        <mxCell id="1" parent="0" />
        <mxCell id="t3WjgwUHCRLScXGaBe3E-5" value="&lt;p style=&quot;line-height: 30%;&quot;&gt;&lt;br&gt;&lt;/p&gt;" style="rounded=0;whiteSpace=wrap;html=1;fillColor=#7EA6E0;fontColor=#ffffff;strokeColor=#000000;shadow=1;" parent="1" vertex="1">
          <mxGeometry x="224" y="130" width="380" height="280" as="geometry" />
        </mxCell>
        <mxCell id="t3WjgwUHCRLScXGaBe3E-2" value="&lt;span style=&quot;font-size: 20px;&quot;&gt;&lt;b&gt;Core&lt;/b&gt;&lt;/span&gt;" style="rounded=0;whiteSpace=wrap;html=1;fillColor=#99CCFF;shadow=1;" parent="1" vertex="1">
          <mxGeometry x="242.5" y="268" width="160.5" height="120" as="geometry" />
        </mxCell>
        <mxCell id="t3WjgwUHCRLScXGaBe3E-6" value="&lt;b&gt;&lt;font color=&quot;#000000&quot; style=&quot;font-size: 20px;&quot;&gt;AXI Interconnect&lt;br&gt;&lt;/font&gt;&lt;/b&gt;" style="rounded=0;whiteSpace=wrap;html=1;fillColor=#e1d5e7;strokeColor=#9673a6;shadow=1;" parent="1" vertex="1">
          <mxGeometry x="9" y="470" width="810" height="38" as="geometry" />
        </mxCell>
        <mxCell id="t3WjgwUHCRLScXGaBe3E-12" value="&lt;font style=&quot;font-size: 20px;&quot;&gt;&lt;b&gt;Biriscv Top&lt;/b&gt;&lt;/font&gt;" style="text;strokeColor=none;align=center;fillColor=none;html=1;verticalAlign=middle;whiteSpace=wrap;rounded=0;" parent="1" vertex="1">
          <mxGeometry x="281.5" y="110" width="263" height="10" as="geometry" />
        </mxCell>
        <mxCell id="t3WjgwUHCRLScXGaBe3E-26" value="" style="shape=flexArrow;endArrow=classic;html=1;rounded=0;exitX=0.513;exitY=0.996;exitDx=0;exitDy=0;fillColor=#66B2FF;strokeColor=default;shadow=1;startArrow=block;startFill=0;exitPerimeter=0;" parent="1" edge="1" source="t3WjgwUHCRLScXGaBe3E-5">
          <mxGeometry width="50" height="50" relative="1" as="geometry">
            <mxPoint x="401" y="458.99999999999994" as="sourcePoint" />
            <mxPoint x="419.5" y="470" as="targetPoint" />
          </mxGeometry>
        </mxCell>
        <mxCell id="QXPdjHvG6K7vzP7jlZgw-5" value="&lt;font color=&quot;#000000&quot;&gt;&lt;b&gt;&lt;span style=&quot;font-size: 20px;&quot;&gt;DDR&lt;br&gt;&lt;/span&gt;&lt;font style=&quot;font-size: 20px;&quot;&gt;Control&lt;/font&gt;&lt;br&gt;&lt;/b&gt;&lt;/font&gt;" style="rounded=0;whiteSpace=wrap;html=1;fillColor=#7EA6E0;strokeColor=#001DBC;shadow=1;fontColor=#ffffff;" vertex="1" parent="1">
          <mxGeometry x="574.5" y="566.1500000000001" width="90" height="90" as="geometry" />
        </mxCell>
        <mxCell id="QXPdjHvG6K7vzP7jlZgw-11" value="&lt;font color=&quot;#000000&quot;&gt;&lt;b&gt;&lt;span style=&quot;font-size: 20px;&quot;&gt;SRAM&lt;/span&gt;&lt;br&gt;&lt;/b&gt;&lt;/font&gt;" style="rounded=0;whiteSpace=wrap;html=1;fillColor=#7EA6E0;strokeColor=#001DBC;shadow=1;fontColor=#ffffff;" vertex="1" parent="1">
          <mxGeometry x="574.5" y="717.15" width="90" height="90" as="geometry" />
        </mxCell>
        <mxCell id="QXPdjHvG6K7vzP7jlZgw-12" value="" style="shape=flexArrow;endArrow=classic;html=1;rounded=0;exitX=0.752;exitY=1.004;exitDx=0;exitDy=0;fillColor=#66B2FF;strokeColor=default;shadow=1;startArrow=block;startFill=0;exitPerimeter=0;" edge="1" parent="1">
          <mxGeometry width="50" height="50" relative="1" as="geometry">
            <mxPoint x="619" y="657.15" as="sourcePoint" />
            <mxPoint x="619.5" y="715.3" as="targetPoint" />
          </mxGeometry>
        </mxCell>
        <mxCell id="QXPdjHvG6K7vzP7jlZgw-13" value="&lt;font style=&quot;font-size: 20px;&quot; color=&quot;#000000&quot;&gt;&lt;b&gt;&lt;span style=&quot;&quot;&gt;AXI&lt;br&gt;&lt;/span&gt;to&lt;br&gt;AHB&lt;br&gt;&lt;/b&gt;&lt;/font&gt;" style="rounded=0;whiteSpace=wrap;html=1;fillColor=#7EA6E0;strokeColor=#001DBC;shadow=1;fontColor=#ffffff;" vertex="1" parent="1">
          <mxGeometry x="164.5" y="566.1500000000001" width="390" height="90" as="geometry" />
        </mxCell>
        <mxCell id="QXPdjHvG6K7vzP7jlZgw-15" value="" style="shape=flexArrow;endArrow=classic;html=1;rounded=0;exitX=0.752;exitY=1.004;exitDx=0;exitDy=0;fillColor=#66B2FF;strokeColor=default;shadow=1;startArrow=block;startFill=0;exitPerimeter=0;entryX=0.5;entryY=0;entryDx=0;entryDy=0;" edge="1" parent="1">
          <mxGeometry width="50" height="50" relative="1" as="geometry">
            <mxPoint x="359.16" y="510.00000000000006" as="sourcePoint" />
            <mxPoint x="359.66" y="564.1500000000001" as="targetPoint" />
          </mxGeometry>
        </mxCell>
        <mxCell id="QXPdjHvG6K7vzP7jlZgw-16" value="&lt;font color=&quot;#000000&quot;&gt;&lt;b&gt;&lt;span style=&quot;font-size: 20px;&quot;&gt;UART&lt;/span&gt;&lt;br&gt;&lt;/b&gt;&lt;/font&gt;" style="rounded=0;whiteSpace=wrap;html=1;fillColor=#7EA6E0;strokeColor=#001DBC;shadow=1;fontColor=#ffffff;" vertex="1" parent="1">
          <mxGeometry x="164.5" y="717.15" width="90" height="90" as="geometry" />
        </mxCell>
        <mxCell id="QXPdjHvG6K7vzP7jlZgw-17" value="&lt;font color=&quot;#000000&quot;&gt;&lt;b&gt;&lt;span style=&quot;font-size: 20px;&quot;&gt;Terminal&lt;/span&gt;&lt;br&gt;&lt;/b&gt;&lt;/font&gt;" style="rounded=0;whiteSpace=wrap;html=1;fillColor=#7EA6E0;strokeColor=#001DBC;shadow=1;fontColor=#ffffff;" vertex="1" parent="1">
          <mxGeometry x="163.5" y="868.3" width="90" height="90" as="geometry" />
        </mxCell>
        <mxCell id="QXPdjHvG6K7vzP7jlZgw-18" value="&lt;font color=&quot;#000000&quot;&gt;&lt;b&gt;&lt;span style=&quot;font-size: 20px;&quot;&gt;SPI&lt;/span&gt;&lt;br&gt;&lt;/b&gt;&lt;/font&gt;" style="rounded=0;whiteSpace=wrap;html=1;fillColor=#7EA6E0;strokeColor=#001DBC;shadow=1;fontColor=#ffffff;" vertex="1" parent="1">
          <mxGeometry x="304.5" y="717.15" width="90" height="90" as="geometry" />
        </mxCell>
        <mxCell id="QXPdjHvG6K7vzP7jlZgw-19" value="&lt;font color=&quot;#000000&quot;&gt;&lt;b&gt;&lt;span style=&quot;font-size: 20px;&quot;&gt;E&lt;sup&gt;2&lt;/sup&gt;PROM&lt;/span&gt;&lt;br&gt;&lt;/b&gt;&lt;/font&gt;" style="rounded=0;whiteSpace=wrap;html=1;fillColor=#7EA6E0;strokeColor=#001DBC;shadow=1;fontColor=#ffffff;" vertex="1" parent="1">
          <mxGeometry x="304.5" y="868.3" width="90" height="90" as="geometry" />
        </mxCell>
        <mxCell id="QXPdjHvG6K7vzP7jlZgw-20" value="&lt;font style=&quot;&quot; color=&quot;#000000&quot;&gt;&lt;b style=&quot;&quot;&gt;&lt;span style=&quot;font-size: 20px;&quot;&gt;NOR&lt;br&gt;&lt;/span&gt;&lt;font style=&quot;font-size: 18px;&quot;&gt;controller&lt;/font&gt;&lt;br&gt;&lt;/b&gt;&lt;/font&gt;" style="rounded=0;whiteSpace=wrap;html=1;fillColor=#7EA6E0;strokeColor=#001DBC;shadow=1;fontColor=#ffffff;" vertex="1" parent="1">
          <mxGeometry x="444.5" y="717.15" width="90" height="90" as="geometry" />
        </mxCell>
        <mxCell id="QXPdjHvG6K7vzP7jlZgw-21" value="&lt;font style=&quot;font-size: 20px;&quot; color=&quot;#000000&quot;&gt;&lt;b&gt;&lt;span style=&quot;&quot;&gt;NOR&lt;br&gt;&lt;/span&gt;Flash&lt;br&gt;&lt;/b&gt;&lt;/font&gt;" style="rounded=0;whiteSpace=wrap;html=1;fillColor=#7EA6E0;strokeColor=#001DBC;shadow=1;fontColor=#ffffff;" vertex="1" parent="1">
          <mxGeometry x="444.5" y="868.3" width="90" height="90" as="geometry" />
        </mxCell>
        <mxCell id="QXPdjHvG6K7vzP7jlZgw-24" value="" style="shape=flexArrow;endArrow=classic;html=1;rounded=0;exitX=0.752;exitY=1.004;exitDx=0;exitDy=0;fillColor=#66B2FF;strokeColor=default;shadow=1;startArrow=block;startFill=0;exitPerimeter=0;" edge="1" parent="1">
          <mxGeometry width="50" height="50" relative="1" as="geometry">
            <mxPoint x="489.5" y="657.15" as="sourcePoint" />
            <mxPoint x="490" y="715.3" as="targetPoint" />
          </mxGeometry>
        </mxCell>
        <mxCell id="QXPdjHvG6K7vzP7jlZgw-25" value="" style="shape=flexArrow;endArrow=classic;html=1;rounded=0;exitX=0.752;exitY=1.004;exitDx=0;exitDy=0;fillColor=#66B2FF;strokeColor=default;shadow=1;startArrow=block;startFill=0;exitPerimeter=0;" edge="1" parent="1">
          <mxGeometry width="50" height="50" relative="1" as="geometry">
            <mxPoint x="349.25" y="657.15" as="sourcePoint" />
            <mxPoint x="349.75" y="715.3" as="targetPoint" />
          </mxGeometry>
        </mxCell>
        <mxCell id="QXPdjHvG6K7vzP7jlZgw-26" value="" style="shape=flexArrow;endArrow=classic;html=1;rounded=0;exitX=0.752;exitY=1.004;exitDx=0;exitDy=0;fillColor=#66B2FF;strokeColor=default;shadow=1;startArrow=block;startFill=0;exitPerimeter=0;" edge="1" parent="1">
          <mxGeometry width="50" height="50" relative="1" as="geometry">
            <mxPoint x="208.25" y="657.15" as="sourcePoint" />
            <mxPoint x="208.75" y="715.3" as="targetPoint" />
          </mxGeometry>
        </mxCell>
        <mxCell id="QXPdjHvG6K7vzP7jlZgw-27" value="" style="shape=flexArrow;endArrow=classic;html=1;rounded=0;exitX=0.752;exitY=1.004;exitDx=0;exitDy=0;fillColor=#66B2FF;strokeColor=default;shadow=1;startArrow=block;startFill=0;exitPerimeter=0;" edge="1" parent="1">
          <mxGeometry width="50" height="50" relative="1" as="geometry">
            <mxPoint x="209.25" y="807.15" as="sourcePoint" />
            <mxPoint x="209.75" y="865.3" as="targetPoint" />
          </mxGeometry>
        </mxCell>
        <mxCell id="QXPdjHvG6K7vzP7jlZgw-28" value="" style="shape=flexArrow;endArrow=classic;html=1;rounded=0;exitX=0.752;exitY=1.004;exitDx=0;exitDy=0;fillColor=#66B2FF;strokeColor=default;shadow=1;startArrow=block;startFill=0;exitPerimeter=0;" edge="1" parent="1">
          <mxGeometry width="50" height="50" relative="1" as="geometry">
            <mxPoint x="491.75" y="808.15" as="sourcePoint" />
            <mxPoint x="492.25" y="866.3" as="targetPoint" />
          </mxGeometry>
        </mxCell>
        <mxCell id="QXPdjHvG6K7vzP7jlZgw-29" value="" style="shape=flexArrow;endArrow=classic;html=1;rounded=0;exitX=0.752;exitY=1.004;exitDx=0;exitDy=0;fillColor=#66B2FF;strokeColor=default;shadow=1;startArrow=block;startFill=0;exitPerimeter=0;" edge="1" parent="1">
          <mxGeometry width="50" height="50" relative="1" as="geometry">
            <mxPoint x="351.5" y="808.15" as="sourcePoint" />
            <mxPoint x="352" y="866.3" as="targetPoint" />
          </mxGeometry>
        </mxCell>
        <mxCell id="QXPdjHvG6K7vzP7jlZgw-30" value="" style="shape=flexArrow;endArrow=classic;html=1;rounded=0;exitX=1.005;exitY=0.547;exitDx=0;exitDy=0;fillColor=#66B2FF;strokeColor=default;shadow=1;startArrow=block;startFill=0;exitPerimeter=0;" edge="1" parent="1">
          <mxGeometry width="50" height="50" relative="1" as="geometry">
            <mxPoint x="163.90000000000012" y="198.15999999999985" as="sourcePoint" />
            <mxPoint x="222.00000000000003" y="198" as="targetPoint" />
          </mxGeometry>
        </mxCell>
        <mxCell id="QXPdjHvG6K7vzP7jlZgw-40" value="" style="rounded=0;whiteSpace=wrap;html=1;fillColor=#B9E0A5;strokeColor=#000000;shadow=1;" vertex="1" parent="1">
          <mxGeometry x="424" y="149" width="75.5" height="100" as="geometry" />
        </mxCell>
        <mxCell id="QXPdjHvG6K7vzP7jlZgw-32" value="&lt;font style=&quot;font-size: 20px;&quot; color=&quot;#000000&quot;&gt;&lt;b&gt;&lt;span style=&quot;&quot;&gt;JTAG&lt;br&gt;&lt;/span&gt;Master&lt;br&gt;&lt;/b&gt;&lt;/font&gt;" style="rounded=0;whiteSpace=wrap;html=1;fillColor=#7EA6E0;strokeColor=#001DBC;shadow=1;fontColor=#ffffff;" vertex="1" parent="1">
          <mxGeometry x="72.50000000000003" y="158.00000000000003" width="90" height="90" as="geometry" />
        </mxCell>
        <mxCell id="QXPdjHvG6K7vzP7jlZgw-33" value="" style="rounded=0;whiteSpace=wrap;html=1;fillColor=#B9E0A5;strokeColor=#000000;shadow=1;" vertex="1" parent="1">
          <mxGeometry x="507.5" y="149" width="76" height="100" as="geometry" />
        </mxCell>
        <mxCell id="QXPdjHvG6K7vzP7jlZgw-34" value="&lt;font style=&quot;font-size: 20px;&quot;&gt;&lt;b&gt;D$&lt;/b&gt;&lt;/font&gt;" style="text;strokeColor=none;align=center;fillColor=none;html=1;verticalAlign=middle;whiteSpace=wrap;rounded=0;" vertex="1" parent="1">
          <mxGeometry x="528" y="194" width="35" height="10" as="geometry" />
        </mxCell>
        <mxCell id="QXPdjHvG6K7vzP7jlZgw-36" value="" style="rounded=0;whiteSpace=wrap;html=1;fillColor=#B9E0A5;strokeColor=#000000;shadow=1;" vertex="1" parent="1">
          <mxGeometry x="424" y="268" width="160" height="120" as="geometry" />
        </mxCell>
        <mxCell id="QXPdjHvG6K7vzP7jlZgw-37" value="&lt;font style=&quot;font-size: 20px;&quot;&gt;&lt;b&gt;L2&lt;br&gt;Cache&lt;br&gt;&lt;/b&gt;&lt;/font&gt;" style="text;strokeColor=none;align=center;fillColor=none;html=1;verticalAlign=middle;whiteSpace=wrap;rounded=0;" vertex="1" parent="1">
          <mxGeometry x="468.75" y="310" width="75.5" height="40" as="geometry" />
        </mxCell>
        <mxCell id="QXPdjHvG6K7vzP7jlZgw-38" value="&lt;font style=&quot;font-size: 20px;&quot;&gt;&lt;b&gt;Debug&lt;br&gt;Module&lt;/b&gt;&lt;/font&gt;" style="rounded=0;whiteSpace=wrap;html=1;fillColor=#B9E0A5;strokeColor=#000000;shadow=1;" vertex="1" parent="1">
          <mxGeometry x="242.5" y="149" width="160.5" height="100" as="geometry" />
        </mxCell>
        <mxCell id="t3WjgwUHCRLScXGaBe3E-19" value="&lt;font style=&quot;font-size: 20px;&quot;&gt;&lt;b&gt;I$&lt;br&gt;&lt;/b&gt;&lt;/font&gt;" style="text;strokeColor=none;align=center;fillColor=none;html=1;verticalAlign=middle;whiteSpace=wrap;rounded=0;" parent="1" vertex="1">
          <mxGeometry x="444" y="194" width="35" height="10" as="geometry" />
        </mxCell>
        <mxCell id="QXPdjHvG6K7vzP7jlZgw-41" value="" style="shape=flexArrow;endArrow=classic;html=1;rounded=0;exitX=0.752;exitY=1.004;exitDx=0;exitDy=0;fillColor=#66B2FF;strokeColor=default;shadow=1;startArrow=block;startFill=0;exitPerimeter=0;entryX=0.5;entryY=0;entryDx=0;entryDy=0;" edge="1" parent="1">
          <mxGeometry width="50" height="50" relative="1" as="geometry">
            <mxPoint x="619.25" y="509" as="sourcePoint" />
            <mxPoint x="619.75" y="563.1500000000001" as="targetPoint" />
          </mxGeometry>
        </mxCell>
      </root>
    </mxGraphModel>
  </diagram>
</mxfile>
